<?xml version="1.0" standalone="no"?>
<!DOCTYPE svg PUBLIC "-//W3C//DTD SVG 20010904//EN"
 "http://www.w3.org/TR/2001/REC-SVG-20010904/DTD/svg10.dtd">
<svg version="1.0" xmlns="http://www.w3.org/2000/svg"
 width="398.000000pt" height="398.000000pt" viewBox="0 0 398.000000 398.000000"
 preserveAspectRatio="xMidYMid meet">
<metadata>
Created by potrace 1.11, written by Peter Selinger 2001-2013
</metadata>
<g transform="translate(0.000000,398.000000) scale(0.100000,-0.100000)"
fill="#000000" stroke="none">
<path d="M2697 2724 c-6 -5 -160 -16 -203 -15 -72 2 -238 -32 -307 -63 -31
-14 -59 -26 -62 -26 -2 -1 -45 -21 -94 -45 -49 -25 -93 -45 -98 -45 -6 0 -29
-13 -51 -30 -23 -16 -44 -30 -47 -30 -8 0 -42 -31 -113 -101 -80 -79 -108
-111 -143 -164 -15 -22 -61 -76 -103 -120 -42 -44 -85 -96 -95 -115 -19 -35
-131 -160 -143 -160 -4 0 -20 -12 -35 -26 -15 -14 -35 -31 -43 -38 -24 -21
-200 -139 -234 -158 -93 -52 -218 -93 -310 -103 -222 -23 -271 -22 -358 5 -35
11 -75 20 -89 20 -35 0 -76 -34 -84 -69 -9 -43 12 -108 41 -127 13 -9 82 -32
152 -51 106 -28 143 -34 227 -33 55 0 116 2 135 4 19 3 60 8 90 11 30 3 62 9
70 12 8 2 26 7 39 9 13 3 33 11 45 19 11 8 27 15 36 15 8 1 33 9 55 20 22 11
44 19 49 20 5 0 24 11 42 25 18 14 35 25 37 25 8 0 152 82 157 90 3 4 21 15
40 25 19 10 49 30 66 45 18 15 56 44 85 63 59 39 141 118 190 182 17 22 59 69
93 105 35 36 83 97 108 135 25 39 56 78 70 87 13 9 56 47 94 86 70 71 95 88
194 140 80 42 236 94 273 90 24 -2 33 -9 37 -28 3 -14 16 -30 29 -36 12 -7 19
-13 14 -15 -4 -2 -15 -20 -25 -39 -76 -161 -73 -151 -73 -245 -1 -145 30 -321
62 -346 7 -6 13 -18 13 -25 0 -18 48 -76 170 -205 24 -26 172 -129 185 -129 3
0 18 -8 32 -17 28 -19 136 -53 243 -77 36 -9 114 -27 174 -41 174 -40 245 -46
353 -27 70 12 143 50 167 87 23 35 21 101 -4 122 -11 10 -20 23 -20 29 0 7
-17 23 -37 36 -32 19 -50 22 -118 21 -44 -1 -87 1 -95 4 -8 3 -60 7 -115 9
-114 3 -143 7 -176 25 -13 7 -33 13 -44 14 -98 9 -239 73 -308 140 -63 61
-103 136 -111 205 -12 100 -9 197 7 227 20 37 47 99 47 108 0 4 6 21 13 38 8
18 24 64 37 102 23 68 45 114 63 126 5 4 9 35 9 71 1 116 -44 150 -204 152
-55 1 -100 1 -101 0z"/>
</g>
</svg>
